HIERARCHY
ROOT Hips
{
	OFFSET 0.00000 0.00000 0.00000
	CHANNELS 6 Xposition Yposition Zposition Zrotation Yrotation Xrotation 
	JOINT LHipJoint
	{
		OFFSET 0 0 0
		CHANNELS 3 Zrotation Yrotation Xrotation
		JOINT LeftUpLeg
		{
			OFFSET 1.58895 -1.83665 0.71753
			CHANNELS 3 Zrotation Yrotation Xrotation
			JOINT LeftLeg
			{
				OFFSET 2.50528 -6.88321 0.00000
				CHANNELS 3 Zrotation Yrotation Xrotation
				JOINT LeftFoot
				{
					OFFSET 2.63244 -7.23257 0.00000
					CHANNELS 3 Zrotation Yrotation Xrotation
					JOINT LeftToeBase
					{
						OFFSET 0.23691 -0.65090 1.72750
						CHANNELS 3 Zrotation Yrotation Xrotation
						End Site
						{
							OFFSET 0.00000 -0.00000 0.92561
						}
					}
				}
			}
		}
	}
	JOINT RHipJoint
	{
		OFFSET 0 0 0
		CHANNELS 3 Zrotation Yrotation Xrotation
		JOINT RightUpLeg
		{
			OFFSET -1.51435 -1.83665 0.71753
			CHANNELS 3 Zrotation Yrotation Xrotation
			JOINT RightLeg
			{
				OFFSET -2.54551 -6.99375 0.00000
				CHANNELS 3 Zrotation Yrotation Xrotation
				JOINT RightFoot
				{
					OFFSET -2.66027 -7.30903 0.00000
					CHANNELS 3 Zrotation Yrotation Xrotation
					JOINT RightToeBase
					{
						OFFSET -0.22981 -0.63138 2.03959
						CHANNELS 3 Zrotation Yrotation Xrotation
						End Site
						{
							OFFSET -0.00000 -0.00000 1.07060
						}
					}
				}
			}
		}
	}
	JOINT LowerBack
	{
		OFFSET 0 0 0
		CHANNELS 3 Zrotation Yrotation Xrotation
		JOINT Spine
		{
			OFFSET -0.02651 1.86275 -0.11152
			CHANNELS 3 Zrotation Yrotation Xrotation
			JOINT Spine1
			{
				OFFSET 0.01019 1.86224 0.04087
				CHANNELS 3 Zrotation Yrotation Xrotation
				JOINT Neck
				{
					OFFSET 0 0 0
					CHANNELS 3 Zrotation Yrotation Xrotation
					JOINT Neck1
					{
						OFFSET -0.01926 1.80512 0.08867
						CHANNELS 3 Zrotation Yrotation Xrotation
						JOINT Head
						{
							OFFSET 0.05516 1.76451 -0.38475
							CHANNELS 3 Zrotation Yrotation Xrotation
							End Site
							{
								OFFSET 0.01592 1.82587 -0.14001
							}
						}
					}
				}
				JOINT LeftShoulder
				{
					OFFSET 0 0 0
					CHANNELS 3 Zrotation Yrotation Xrotation
					JOINT LeftArm
					{
						OFFSET 3.47116 1.51376 0.14491
						CHANNELS 3 Zrotation Yrotation Xrotation
						JOINT LeftForeArm
						{
							OFFSET 4.78095 -0.00000 0.00000
							CHANNELS 3 Zrotation Yrotation Xrotation
							JOINT LeftHand
							{
								OFFSET 3.58615 -0.00000 -0.00000
								CHANNELS 3 Zrotation Yrotation Xrotation
								JOINT LeftFingerBase
								{
									OFFSET 0 0 0
									CHANNELS 3 Zrotation Yrotation Xrotation
									JOINT LeftHandIndex1
									{
										OFFSET 0.65981 -0.00000 0.00000
										CHANNELS 3 Zrotation Yrotation Xrotation
										End Site
										{
											OFFSET 0.53196 -0.00000 0.00000
										}
									}
								}
								JOINT LThumb
								{
									OFFSET 0 0 0
									CHANNELS 3 Zrotation Yrotation Xrotation
									End Site
									{
										OFFSET 0.54008 -0.00000 0.54008
									}
								}
							}
						}
					}
				}
				JOINT RightShoulder
				{
					OFFSET 0 0 0
					CHANNELS 3 Zrotation Yrotation Xrotation
					JOINT RightArm
					{
						OFFSET -3.31725 1.61216 0.35156
						CHANNELS 3 Zrotation Yrotation Xrotation
						JOINT RightForeArm
						{
							OFFSET -4.48913 -0.00000 0.00000
							CHANNELS 3 Zrotation Yrotation Xrotation
							JOINT RightHand
							{
								OFFSET -3.70510 -0.00000 0.00000
								CHANNELS 3 Zrotation Yrotation Xrotation
								JOINT RightFingerBase
								{
									OFFSET 0 0 0
									CHANNELS 3 Zrotation Yrotation Xrotation
									JOINT RightHandIndex1
									{
										OFFSET -0.44914 -0.00000 0.00000
										CHANNELS 3 Zrotation Yrotation Xrotation
										End Site
										{
											OFFSET -0.36211 -0.00000 0.00000
										}
									}
								}
								JOINT RThumb
								{
									OFFSET 0 0 0
									CHANNELS 3 Zrotation Yrotation Xrotation
									End Site
									{
										OFFSET -0.36763 -0.00000 0.36763
									}
								}
							}
						}
					}
				}
			}
		}
	}
}
MOTION
Frames: 11
Frame Time: .0083333
-0.5052 18.6376 5.6962 0 0 0 0 0 0 -21 0 0 0 0 0 0 0 0 0 0 0 0 0 0 21 0 0 0 0 0 0 0 0 0 0 0 0 0 0 0 0 0 0 0 0 0 0 -16 0 0 21 0 0 11 0 0 0 -8 0 0 0 0 0 0 0 0 0 0 0 0 0 0 0 0 0 0 0 0 8 0 0 0 0 0 0 0 0 0 0 0 0 0 0 0 0 0
-0.5052 18.6376 5.6962 -1.5931 -5.7209 1.8575 0.0000 0.0000 0.0000 -14.3774 -7.5022 0.2545 1.1603 6.8385 19.2377 2.2906 9.5417 -33.2637 7.5431 -15.7727 -50.8998 0.0000 0.0000 0.0000 0.0000 0.0000 0.0000 0.0000 0.0000 0.0000 -0.0000 -0.0000 0.0000 -0.0000 -0.0000 0.0000 0.1312 1.6192 -0.0727 0.1595 2.1652 -2.5187 0.0436 1.0800 -2.5429 -3.0294 -2.2111 -9.6209 4.1751 -3.5382 23.5257 1.5612 -1.4981 9.0737 -0.0000 -0.0000 0.0000 -91.4916 11.5549 31.7388 18.3365 -28.5859 -4.7091 -0.0000 -0.0000 0.9210 12.0463 -24.4716 -5.0518 -7.1250 0.0000 -0.0000 -10.6404 5.3840 9.7688 -0.0000 -0.0000 0.0000 89.9582 -16.8234 26.9280 -22.8187 33.8900 -7.0369 0.0000 0.0000 21.0323 -5.6442 -31.4033 2.9479 7.1250 -0.0000 -0.0000 29.4296 -58.9996 -10.6430
-0.5040 18.6377 5.6955 -1.5221 -5.7155 1.9090 0.0000 0.0000 0.0000 -14.4563 -7.5564 0.2227 1.1559 6.8260 19.2008 2.2786 9.6693 -33.2754 7.5569 -15.7834 -50.9503 0.0000 0.0000 0.0000 0.0000 0.0000 0.0000 0.0000 0.0000 0.0000 -0.0000 -0.0000 0.0000 -0.0000 -0.0000 0.0000 0.0516 1.6248 -0.1524 0.1406 2.1710 -2.5578 0.0704 1.0845 -2.5405 -3.0226 -2.2411 -9.5551 4.1596 -3.5791 23.5150 1.5508 -1.5193 9.0589 0.0000 0.0000 0.0000 -91.6052 11.6655 30.9137 18.5064 -28.8007 -4.7907 -0.0000 -0.0000 2.4705 11.1116 -24.6318 -4.6797 -7.1250 0.0000 -0.0000 -11.2174 5.3360 10.3300 0.0000 0.0000 0.0000 89.9627 -16.8860 26.9272 -22.8249 33.8968 -7.0404 0.0000 0.0000 20.9644 -5.7320 -31.3272 2.9875 7.1250 -0.0000 -0.0000 29.2752 -58.9537 -10.5481
-0.5034 18.6376 5.6935 -1.4986 -5.6951 1.9155 0.0000 0.0000 0.0000 -14.4814 -7.5945 0.2193 1.1550 6.8235 19.1934 2.2737 9.7135 -33.2757 7.5772 -15.7993 -51.0249 0.0000 0.0000 0.0000 0.0000 0.0000 0.0000 0.0000 0.0000 0.0000 -0.0000 -0.0000 0.0000 -0.0000 -0.0000 0.0000 0.0390 1.6281 -0.1477 0.1196 2.1750 -2.5958 0.0549 1.0865 -2.5819 -2.9807 -2.2553 -9.4696 4.1230 -3.5997 23.5025 1.5297 -1.5303 9.0379 -0.0000 -0.0000 0.0000 -91.6766 11.7943 30.1383 18.7008 -29.0452 -4.8847 -0.0000 -0.0000 3.9789 10.2175 -24.7005 -4.3074 -7.1250 0.0000 -0.0000 -11.7642 5.3701 10.8479 -0.0000 -0.0000 0.0000 90.0062 -16.9398 26.8856 -22.8110 33.8815 -7.0327 0.0000 0.0000 20.9649 -5.7738 -31.3008 3.0071 7.1250 -0.0000 -0.0000 29.2105 -58.9402 -10.5126
-0.5033 18.6372 5.6914 -1.4676 -5.6849 1.8758 0.0000 0.0000 0.0000 -14.5166 -7.5812 0.2798 1.1485 6.8048 19.1384 2.2646 9.7360 -33.2378 7.5739 -15.7967 -51.0128 0.0000 0.0000 0.0000 0.0000 0.0000 0.0000 0.0000 0.0000 0.0000 -0.0000 -0.0000 0.0000 -0.0000 -0.0000 0.0000 0.0164 1.6347 -0.0948 0.0949 2.1831 -2.6178 0.0401 1.0906 -2.6343 -2.9212 -2.2496 -9.3965 4.1033 -3.5992 23.4894 1.5136 -1.5280 9.0182 -0.0000 0.0000 0.0000 -91.7589 11.9008 29.3173 18.8807 -29.2701 -4.9724 -0.0000 -0.0000 5.4894 9.3185 -24.7584 -3.9311 -7.1250 0.0000 -0.0000 -12.3121 5.4117 11.3676 -0.0000 0.0000 0.0000 90.0382 -16.9888 26.8610 -22.8049 33.8748 -7.0293 0.0000 0.0000 20.9655 -5.7533 -31.2655 2.9933 7.1250 -0.0000 -0.0000 29.2001 -58.9052 -10.4835
-0.4982 18.6362 5.7024 -1.5124 -5.7347 1.8192 0.0000 0.0000 0.0000 -14.5741 -7.7272 0.4981 1.1412 6.7840 19.0770 2.2898 9.8860 -33.4775 7.5422 -15.7720 -50.8963 0.0000 0.0000 0.0000 0.0000 0.0000 0.0000 0.0000 0.0000 0.0000 -0.0000 -0.0000 0.0000 -0.0000 -0.0000 0.0000 0.1624 1.6582 -0.2326 0.0840 2.2157 -2.5825 -0.0482 1.1037 -2.5144 -2.7081 -2.2395 -9.4499 3.8222 -3.5628 23.6393 1.3855 -1.5195 9.0697 -0.0000 -0.0000 0.0000 -91.8490 11.9654 28.5525 18.9967 -29.4146 -5.0292 -0.0000 -0.0000 6.9181 8.4633 -24.9223 -3.5878 -7.1250 0.0000 -0.0000 -12.8338 5.3411 11.8925 -0.0000 -0.0000 0.0000 89.9547 -16.9969 27.0690 -22.7261 33.7880 -6.9854 0.0000 0.0000 20.7236 -6.0143 -31.1065 3.1156 7.1250 -0.0000 -0.0000 28.8021 -58.8257 -10.2691
-0.5705 18.6718 5.6012 -1.0248 -3.5861 3.1771 0.0000 0.0000 0.0000 -13.7885 -6.2794 -2.7229 1.1336 6.7620 19.0123 1.7946 8.2067 -29.3875 7.9636 -16.0924 -52.4313 0.0000 0.0000 0.0000 0.0000 0.0000 0.0000 0.0000 0.0000 0.0000 -0.0000 -0.0000 0.0000 -0.0000 -0.0000 0.0000 -1.5234 0.9304 -0.0571 0.1751 1.2182 -3.3650 0.9967 0.6552 -3.4616 -2.3039 -2.2586 -9.4952 3.2465 -3.5367 23.9131 1.1233 -1.5289 9.1544 0.0000 0.0000 0.0000 -91.9985 12.1546 27.0221 19.3297 -29.8263 -5.1938 -0.0000 -0.0000 9.9469 6.7510 -25.3284 -2.8991 -7.1250 0.0000 -0.0000 -13.8715 5.1156 12.9738 0.0000 0.0000 0.0000 89.8770 -17.0363 27.3490 -22.5649 33.6096 -6.8959 0.0000 0.0000 20.3481 -6.5728 -30.9203 3.3883 7.1250 -0.0000 -0.0000 28.0853 -58.7881 -9.9610
-0.5770 18.6731 5.6075 -0.9307 -3.5675 3.2459 0.0000 0.0000 0.0000 -13.8696 -6.3384 -2.7478 1.1268 6.7423 18.9540 1.7928 8.1988 -29.3710 7.9458 -16.0792 -52.3671 0.0000 0.0000 0.0000 0.0000 0.0000 0.0000 0.0000 0.0000 0.0000 -0.0000 -0.0000 0.0000 -0.0000 -0.0000 0.0000 -1.7242 0.9126 -0.2511 0.1773 1.1945 -3.3538 1.1156 0.6483 -3.3444 -2.1281 -2.2572 -9.6645 2.9451 -3.4979 24.0702 0.9929 -1.5238 9.2311 -0.0000 0.0000 0.0000 -92.0268 12.1413 26.9915 19.3307 -29.8276 -5.1943 -0.0000 -0.0000 10.0106 6.7635 -25.2475 -2.8958 -7.1250 0.0000 -0.0000 -13.8630 5.1931 12.9445 -0.0000 0.0000 0.0000 89.8302 -16.9778 27.4800 -22.4779 33.5130 -6.8479 0.0000 0.0000 20.1985 -6.8382 -30.8658 3.5205 7.1250 -0.0000 -0.0000 27.7736 -58.7994 -9.8469
-0.5759 18.6728 5.6066 -0.9516 -3.5447 3.2426 0.0000 0.0000 0.0000 -13.8536 -6.3618 -2.6970 1.1183 6.7178 18.8819 1.7907 8.1864 -29.3491 7.9266 -16.0650 -52.2979 0.0000 0.0000 0.0000 0.0000 0.0000 0.0000 0.0000 0.0000 0.0000 -0.0000 -0.0000 0.0000 -0.0000 -0.0000 0.0000 -1.6886 0.8893 -0.2501 0.1887 1.1643 -3.3510 1.1083 0.6323 -3.3405 -2.1283 -2.2382 -9.6942 2.9283 -3.4672 24.0909 0.9902 -1.5108 9.2428 -0.0000 0.0000 0.0000 -92.0701 12.1402 26.9041 19.3194 -29.8137 -5.1887 -0.0000 -0.0000 10.0906 6.7245 -25.1952 -2.8734 -7.1250 0.0000 -0.0000 -13.8859 5.2477 12.9524 -0.0000 0.0000 0.0000 89.8083 -16.9689 27.5126 -22.4689 33.5029 -6.8429 0.0000 0.0000 20.1891 -6.8712 -30.7766 3.5284 7.1250 -0.0000 -0.0000 27.6654 -58.7287 -9.7569
-0.5752 18.6729 5.6060 -0.9453 -3.5301 3.2323 0.0000 0.0000 0.0000 -13.8671 -6.3784 -2.6704 1.1159 6.7108 18.8614 1.7924 8.1730 -29.3517 7.9266 -16.0650 -52.2978 0.0000 0.0000 0.0000 0.0000 0.0000 0.0000 0.0000 0.0000 0.0000 -0.0000 -0.0000 0.0000 -0.0000 -0.0000 0.0000 -1.6228 0.8958 -0.1055 0.1427 1.1694 -3.4487 1.0206 0.6342 -3.5211 -2.1067 -2.2491 -9.6116 2.9381 -3.4931 24.1639 0.9881 -1.5204 9.2533 -0.0000 0.0000 0.0000 -92.0081 12.2971 26.9462 19.3143 -29.8073 -5.1861 -0.0000 -0.0000 10.1257 6.6609 -25.1928 -2.8458 -7.1250 0.0000 -0.0000 -13.9240 5.2560 12.9880 -0.0000 0.0000 0.0000 89.8584 -17.1164 27.4923 -22.4601 33.4931 -6.8380 0.0000 0.0000 20.1778 -7.0354 -30.5731 3.5919 7.1250 -0.0000 -0.0000 27.3309 -58.5864 -9.5324
-0.5746 18.6733 5.6053 -0.9334 -3.5304 3.2216 0.0000 0.0000 0.0000 -13.8882 -6.4089 -2.6500 1.1156 6.7100 18.8590 1.7931 8.2036 -29.3755 7.9344 -16.0708 -52.3260 0.0000 0.0000 0.0000 0.0000 0.0000 0.0000 0.0000 0.0000 0.0000 -0.0000 -0.0000 0.0000 -0.0000 -0.0000 0.0000 -1.5027 0.9373 0.1934 0.0450 1.2178 -3.6532 0.8438 0.6566 -3.8989 -2.0715 -2.2799 -9.4288 2.9842 -3.5610 24.2700 0.9927 -1.5454 9.2580 -0.0000 0.0000 0.0000 -91.8603 12.6290 27.0549 19.3361 -29.8342 -5.1970 -0.0000 -0.0000 10.1794 6.6311 -25.1463 -2.8281 -7.1250 0.0000 -0.0000 -13.9414 5.3042 12.9922 -0.0000 0.0000 0.0000 90.0327 -17.4483 27.3457 -22.4827 33.5182 -6.8505 0.0000 0.0000 20.1831 -7.1428 -30.4917 3.6383 7.1250 -0.0000 -0.0000 27.1561 -58.5384 -9.4336
